<?xml version="1.0" encoding="utf-8"?>
<!DOCTYPE svg PUBLIC "-//W3C//DTD SVG 1.1//EN" "http://www.w3.org/Graphics/SVG/1.1/DTD/svg11.dtd">

<svg version="1.1" xmlns="http://www.w3.org/2000/svg"
	 width="15px" height="12px" viewBox="0 0 15 12">
	 
<title>Twitter</title>
	 
<style type="text/css"><![CDATA[
	.glyph { fill:white }
]]></style>

<path class="glyph" d="M14.88,1.42c-0.54,0.24-1.13,0.4-1.74,0.48c0.62-0.38,1.11-0.97,1.33-1.68c-0.58,0.35-1.23,0.6-1.92,0.73
		C12,0.37,11.21,0,10.34,0C8.67,0,7.31,1.36,7.31,3.03c0,0.24,0.03,0.47,0.08,0.69C4.87,3.59,2.64,2.39,1.15,0.55
		C0.88,1,0.73,1.52,0.73,2.08c0,1.05,0.54,1.98,1.35,2.52c-0.5-0.02-0.96-0.15-1.37-0.38c0,0.01,0,0.03,0,0.04
		c0,1.47,1.04,2.69,2.43,2.97C2.89,7.3,2.62,7.34,2.34,7.34c-0.2,0-0.39-0.02-0.57-0.06c0.39,1.2,1.5,2.08,2.83,2.1
		c-1.04,0.81-2.34,1.3-3.76,1.3c-0.24,0-0.49-0.01-0.72-0.04C1.46,11.5,3.05,12,4.76,12c5.57,0,8.62-4.62,8.62-8.62
		c0-0.13,0-0.26-0.01-0.39C13.96,2.56,14.48,2.03,14.88,1.42z"/>
</svg>
