<?xml version="1.0" encoding="utf-8"?>
<!DOCTYPE svg PUBLIC "-//W3C//DTD SVG 1.1//EN"
                     "http://www.w3.org/Graphics/SVG/1.1/DTD/svg11.dtd">

<svg version="1.1" xmlns="http://www.w3.org/2000/svg"
     viewBox="0 0 32 32">

<style type="text/css"><![CDATA[
	*     { stroke-linejoin:round; stroke-linecap:round; }
	:root { stroke-width:2; stroke:hsl(90,50%,50%); fill:transparent; }
	.thin { stroke-width:1 }
	.fill { fill:hsl(90,50%,50%); stroke:none }
]]></style>


<g class="fill">
	<path d="M16.4,3.2c3.4-0.2,4.3,3.2,4.3,3.2l-6.2,6.2c0,0-0.9-3.4-4.3-3.2L16.4,
		3.2z"/>
	<path d="M11.5,21c0,0-0.4,0.4-1.4,1.6c-1.1,1.3-0.5,3.3,0.7,4.1c1.4,1,3.5,1,4.6,
		0c2.4-2.4,6.9-7.3,7.6-8.3s1.7-3.7-0.7-5.8c-1.3-1.2-3.1-2.8-3.1-2.8L14,
		15.1c0,0-0.5-3-2.9-4c-1.3-0.5-2.1,0.1-2.6,0.8c-1.4,2.2,0.1,4.8,2.7,6.9
		c2.1,1.8,4.5,3.7,4.5,5.9c0,0.8-0.4,1.3-1,1.7c-0.7,0.4-1.8,
		0.1-2-0.5l1.5-1.8c0,0-0.4-0.8-1-1.5C12.6,21.8,11.7,21.2,11.5,21"/>
</g>

</svg>
