<svg id="livetype" xmlns="http://www.w3.org/2000/svg" width="187.6422" height="40" viewBox="0 0 187.6422 40">
  <title>Download_on_the_Mac_App_Store_Badge_TR_RGB_blk_092717</title>
  <g>
    <g>
      <path d="M178.1129,0H9.53468c-.3667,0-.729,0-1.09473.002-.30615.002-.60986.00781-.91895.0127A13.21476,13.21476,0,0,0,5.5171.19141a6.66509,6.66509,0,0,0-1.90088.627A6.4378,6.4378,0,0,0,1.99757,1.99707,6.25844,6.25844,0,0,0,.81935,3.61816a6.60119,6.60119,0,0,0-.625,1.90332,12.993,12.993,0,0,0-.1792,2.002C.00587,7.83008.00489,8.1377,0,8.44434V31.5586c.00489.3105.00587.6113.01514.9219a12.99232,12.99232,0,0,0,.1792,2.0019,6.58756,6.58756,0,0,0,.625,1.9043A6.20778,6.20778,0,0,0,1.99757,38.001a6.27446,6.27446,0,0,0,1.61865,1.1787,6.70082,6.70082,0,0,0,1.90088.6308,13.45514,13.45514,0,0,0,2.0039.1768c.30909.0068.6128.0107.91895.0107C8.80567,40,9.168,40,9.53468,40H178.1129c.3594,0,.7246,0,1.084-.002.3047,0,.6172-.0039.9219-.0107a13.279,13.279,0,0,0,2-.1768,6.80432,6.80432,0,0,0,1.9082-.6308,6.27742,6.27742,0,0,0,1.6172-1.1787,6.39482,6.39482,0,0,0,1.1816-1.6143,6.60413,6.60413,0,0,0,.6191-1.9043,13.50643,13.50643,0,0,0,.1856-2.0019c.0039-.3106.0039-.6114.0039-.9219.0078-.3633.0078-.7246.0078-1.0938V9.53613c0-.36621,0-.72949-.0078-1.09179,0-.30664,0-.61426-.0039-.9209a13.5071,13.5071,0,0,0-.1856-2.002,6.6177,6.6177,0,0,0-.6191-1.90332A6.46619,6.46619,0,0,0,184.027.81836a6.76754,6.76754,0,0,0-1.9082-.627,13.04394,13.04394,0,0,0-2-.17676c-.3047-.00488-.6172-.01074-.9219-.01269C178.8375,0,178.4723,0,178.1129,0Z" style="fill: #a6a6a6"/>
      <path d="M8.44483,39.125c-.30468,0-.60205-.0039-.90429-.0107a12.68714,12.68714,0,0,1-1.86914-.1631,5.88381,5.88381,0,0,1-1.65674-.5479,5.40573,5.40573,0,0,1-1.397-1.0166,5.32082,5.32082,0,0,1-1.02051-1.3965,5.72184,5.72184,0,0,1-.543-1.6572,12.41339,12.41339,0,0,1-.1665-1.875c-.00634-.2109-.01464-.9131-.01464-.9131V8.44434S.88185,7.75293.8877,7.5498a12.37032,12.37032,0,0,1,.16553-1.87207,5.75552,5.75552,0,0,1,.54346-1.6621A5.3735,5.3735,0,0,1,2.61183,2.61768,5.56543,5.56543,0,0,1,4.01417,1.59521a5.82309,5.82309,0,0,1,1.65332-.54394A12.58589,12.58589,0,0,1,7.543.88721L8.44532.875H179.192l.9131.0127a12.38492,12.38492,0,0,1,1.8584.16259,5.93833,5.93833,0,0,1,1.6709.54785,5.59374,5.59374,0,0,1,2.415,2.41993,5.76267,5.76267,0,0,1,.5352,1.64892,12.995,12.995,0,0,1,.1738,1.88721c.0029.2832.0029.5874.0029.89014.0079.375.0079.73193.0079,1.09179V30.4648c0,.3633,0,.7178-.0079,1.0752,0,.3252,0,.6231-.0039.9297a12.73126,12.73126,0,0,1-.1709,1.8535,5.739,5.739,0,0,1-.54,1.67,5.48029,5.48029,0,0,1-1.0156,1.3857,5.4129,5.4129,0,0,1-1.3994,1.0225,5.86168,5.86168,0,0,1-1.668.5498,12.54218,12.54218,0,0,1-1.8692.1631c-.2929.0068-.5996.0107-.8974.0107l-1.084.002Z"/>
    </g>
    <g id="_Group_" data-name="&lt;Group&gt;">
      <g id="_Group_2" data-name="&lt;Group&gt;">
        <path id="_Path_" data-name="&lt;Path&gt;" d="M24.76888,20.30068a4.94881,4.94881,0,0,1,2.35656-4.15206,5.06566,5.06566,0,0,0-3.99116-2.15768c-1.67924-.17626-3.30719,1.00483-4.1629,1.00483-.87227,0-2.18977-.98733-3.6085-.95814a5.31529,5.31529,0,0,0-4.47292,2.72787c-1.934,3.34842-.49141,8.26947,1.3612,10.97608.9269,1.32535,2.01018,2.8058,3.42763,2.7533,1.38706-.05753,1.9051-.88448,3.5794-.88448,1.65876,0,2.14479.88448,3.591.8511,1.48838-.02416,2.42613-1.33124,3.32051-2.66914a10.962,10.962,0,0,0,1.51842-3.09251A4.78205,4.78205,0,0,1,24.76888,20.30068Z" style="fill: #fff"/>
        <path id="_Path_2" data-name="&lt;Path&gt;" d="M22.03725,12.21089a4.87248,4.87248,0,0,0,1.11452-3.49062,4.95746,4.95746,0,0,0-3.20758,1.65961,4.63634,4.63634,0,0,0-1.14371,3.36139A4.09905,4.09905,0,0,0,22.03725,12.21089Z" style="fill: #fff"/>
      </g>
    </g>
    <g id="_Group_3" data-name="&lt;Group&gt;">
      <g>
        <path d="M35.5801,24.47949a.55433.55433,0,1,1,.55469.56641A.55224.55224,0,0,1,35.5801,24.47949Zm.09082,7.08691v-5.9668h.92676v5.9668Z" style="fill: #fff"/>
        <path d="M38.1133,27.06348h.85547v.71582h.06641a1.34769,1.34769,0,0,1,1.34375-.80273,1.46456,1.46456,0,0,1,1.55859,1.6748v2.915h-.88867V28.875c0-.72363-.31445-1.084-.97168-1.084a1.03309,1.03309,0,0,0-1.0752,1.1416v2.63379H38.1133Z" style="fill: #fff"/>
        <path d="M43.08889,29.31348c0-1.42285.73145-2.32422,1.86914-2.32422a1.48312,1.48312,0,0,1,1.38086.79h.06641V25.30566H47.294v6.26074H46.4424v-.71094h-.07031a1.56245,1.56245,0,0,1-1.41406.78516C43.81252,31.64063,43.08889,30.73926,43.08889,29.31348Zm.918,0c0,.95508.4502,1.5293,1.20313,1.5293.749,0,1.21191-.583,1.21191-1.52539,0-.93848-.46777-1.53027-1.21191-1.53027C44.46193,27.78711,44.00686,28.36621,44.00686,29.31348Z" style="fill: #fff"/>
        <path d="M48.63576,25.73242a.57576.57576,0,1,1,.5752.541A.54735.54735,0,0,1,48.63576,25.73242Zm.13184,1.33105h.88574v4.50293H48.7676Z" style="fill: #fff"/>
        <path d="M51.08693,27.06348h.85547v.69043h.06641a1.22057,1.22057,0,0,1,1.21582-.76465,1.837,1.837,0,0,1,.39648.03711v.877a2.40007,2.40007,0,0,0-.49609-.05371,1.05507,1.05507,0,0,0-1.14941,1.05859v2.6582h-.88867Z" style="fill: #fff"/>
        <path d="M54.55373,25.73242a.57576.57576,0,1,1,.5752.541A.54735.54735,0,0,1,54.55373,25.73242Zm.13184,1.33105h.88574v4.50293h-.88574Z" style="fill: #fff"/>
        <path d="M57.0049,27.06348h.85547v.71582h.06641a1.34769,1.34769,0,0,1,1.34375-.80273,1.46456,1.46456,0,0,1,1.55859,1.6748v2.915h-.88867V28.875c0-.72363-.31445-1.084-.97168-1.084a1.03309,1.03309,0,0,0-1.0752,1.1416v2.63379H57.0049Z" style="fill: #fff"/>
      </g>
    </g>
    <g>
      <path d="M46.15139,20.83252V11.69287h-.06055l-3.74316,9.04492H40.919L37.166,11.69287h-.05957v9.13965H35.35061V8.41455H37.5801l4.01855,9.80176H41.667l4.01074-9.80176h2.2373v12.418Z" style="fill: #fff"/>
      <path d="M49.39846,18.25928c0-1.583,1.21289-2.53906,3.36523-2.668l2.47852-.1377v-.68848c0-1.00684-.66309-1.5752-1.791-1.5752a1.73035,1.73035,0,0,0-1.90137,1.27441H49.81154c.05176-1.63574,1.5752-2.79687,3.69141-2.79687,2.16016,0,3.58887,1.17871,3.58887,2.96v6.20508H55.31057V19.34326h-.043a3.23683,3.23683,0,0,1-2.85742,1.64453A2.74447,2.74447,0,0,1,49.39846,18.25928Zm5.84375-.81738v-.69727l-2.22949.1377c-1.11035.06934-1.73828.55078-1.73828,1.3252,0,.792.6543,1.30859,1.65234,1.30859A2.17046,2.17046,0,0,0,55.24221,17.44189Z" style="fill: #fff"/>
      <path d="M64.89553,14.894a1.99909,1.99909,0,0,0-2.13379-1.66895c-1.42871,0-2.375,1.19629-2.375,3.08105,0,1.92773.95508,3.08887,2.3916,3.08887a1.94829,1.94829,0,0,0,2.11719-1.626h1.79a3.61835,3.61835,0,0,1-3.92383,3.17578c-2.582,0-4.26855-1.76465-4.26855-4.63867,0-2.81445,1.68652-4.63867,4.251-4.63867A3.63931,3.63931,0,0,1,66.669,14.894Z" style="fill: #fff"/>
      <path d="M78.76174,17.47607h-4.7334l-1.13672,3.35645H70.88674l4.4834-12.418h2.083l4.4834,12.418H79.89748Zm-4.24316-1.54883h3.752L76.42092,10.48h-.05176Z" style="fill: #fff"/>
      <path d="M91.61867,16.30615c0,2.81348-1.50586,4.62109-3.77832,4.62109a3.0693,3.0693,0,0,1-2.84863-1.584h-.043v4.48438h-1.8584V11.77881h1.79883v1.50586h.03418a3.21162,3.21162,0,0,1,2.88281-1.60059C90.104,11.68408,91.61867,13.50049,91.61867,16.30615Zm-1.91016,0c0-1.833-.94727-3.03809-2.39258-3.03809-1.41992,0-2.375,1.23047-2.375,3.03809,0,1.82422.95508,3.0459,2.375,3.0459C88.76125,19.35205,89.70852,18.15576,89.70852,16.30615Z" style="fill: #fff"/>
      <path d="M101.58352,16.30615c0,2.81348-1.50586,4.62109-3.77832,4.62109a3.0693,3.0693,0,0,1-2.84863-1.584h-.043v4.48438H93.0552V11.77881H94.854v1.50586h.03418A3.21162,3.21162,0,0,1,97.771,11.68408C100.06887,11.68408,101.58352,13.50049,101.58352,16.30615Zm-1.91016,0c0-1.833-.94727-3.03809-2.39258-3.03809-1.41992,0-2.375,1.23047-2.375,3.03809,0,1.82422.95508,3.0459,2.375,3.0459C98.72609,19.35205,99.67336,18.15576,99.67336,16.30615Z" style="fill: #fff"/>
      <path d="M108.16945,17.37256c.1377,1.23145,1.334,2.04,2.96875,2.04,1.56641,0,2.69336-.80859,2.69336-1.91895,0-.96387-.67969-1.541-2.28906-1.93652l-1.60937-.3877c-2.28027-.55078-3.33887-1.61719-3.33887-3.34766,0-2.14258,1.86719-3.61426,4.51855-3.61426,2.624,0,4.42285,1.47168,4.4834,3.61426h-1.876c-.1123-1.23926-1.13672-1.9873-2.63379-1.9873s-2.52148.75684-2.52148,1.8584c0,.87793.6543,1.39453,2.25488,1.79l1.36816.33594c2.54785.60254,3.60645,1.626,3.60645,3.44238,0,2.32324-1.85059,3.77832-4.79395,3.77832-2.75391,0-4.61328-1.4209-4.7334-3.667Z" style="fill: #fff"/>
      <path d="M119.8052,9.63623v2.14258h1.72168v1.47168H119.8052V18.2417c0,.77539.34473,1.13672,1.10156,1.13672a5.80752,5.80752,0,0,0,.61133-.043v1.46289a5.10351,5.10351,0,0,1-1.03223.08594c-1.833,0-2.54785-.68848-2.54785-2.44434V13.25049H116.6216V11.77881H117.938V9.63623Z" style="fill: #fff"/>
      <path d="M122.523,16.30615c0-2.84863,1.67773-4.63867,4.29395-4.63867,2.625,0,4.29492,1.79,4.29492,4.63867,0,2.85645-1.66113,4.63867-4.29492,4.63867C124.1841,20.94482,122.523,19.1626,122.523,16.30615Zm6.69531,0c0-1.9541-.89551-3.10742-2.40137-3.10742s-2.40137,1.16211-2.40137,3.10742c0,1.96191.89551,3.10645,2.40137,3.10645S129.21828,18.26807,129.21828,16.30615Z" style="fill: #fff"/>
      <path d="M132.645,11.77881h1.77246v1.541h.043a2.1594,2.1594,0,0,1,2.17773-1.63574,2.86616,2.86616,0,0,1,.63672.06934V13.4917a2.59794,2.59794,0,0,0-.835-.1123,1.87264,1.87264,0,0,0-1.93652,2.083v5.37012H132.645Z" style="fill: #fff"/>
      <path d="M145.8423,18.17334c-.25,1.64355-1.85059,2.77148-3.89844,2.77148-2.63379,0-4.26855-1.76465-4.26855-4.5957,0-2.83984,1.64355-4.68164,4.19043-4.68164,2.50488,0,4.08008,1.7207,4.08008,4.46582V16.77h-6.39453v.1123a2.358,2.358,0,0,0,2.43555,2.56445,2.04834,2.04834,0,0,0,2.09082-1.27344Zm-6.28223-2.70215h4.52637a2.1773,2.1773,0,0,0-2.2207-2.29785A2.292,2.292,0,0,0,139.56008,15.47119Z" style="fill: #fff"/>
      <path d="M147.19387,12.9585l1.01563-4.54395h1.80664l-1.23047,4.54395Z" style="fill: #fff"/>
      <path d="M149.93508,16.30615c0-2.79687,1.54-4.62207,3.78613-4.62207a3.05412,3.05412,0,0,1,2.83984,1.60059h.03516V8.41455h1.86719v12.418h-1.80762v-1.54h-.03418a3.08787,3.08787,0,0,1-2.88281,1.63477C151.47512,20.92725,149.93508,19.103,149.93508,16.30615Zm1.90137,0c0,1.8584.94727,3.0459,2.39258,3.0459,1.42871,0,2.38379-1.20508,2.38379-3.0459,0-1.8252-.95508-3.03809-2.38379-3.03809C152.78371,13.26807,151.83645,14.46436,151.83645,16.30615Z" style="fill: #fff"/>
      <path d="M160.10012,18.25928c0-1.583,1.21289-2.53906,3.36426-2.668l2.47852-.1377v-.68848c0-1.00684-.66211-1.5752-1.78906-1.5752a1.73081,1.73081,0,0,0-1.90234,1.27441H160.5132c.05176-1.63574,1.57422-2.79687,3.69141-2.79687,2.16016,0,3.58887,1.17871,3.58887,2.96v6.20508h-1.78125V19.34326h-.043a3.23683,3.23683,0,0,1-2.85742,1.64453A2.74447,2.74447,0,0,1,160.10012,18.25928Zm5.84277-.81738v-.69727l-2.22852.1377c-1.11035.06934-1.73828.55078-1.73828,1.3252,0,.792.6543,1.30859,1.65234,1.30859A2.16958,2.16958,0,0,0,165.94289,17.44189Z" style="fill: #fff"/>
      <path d="M169.687,11.77881h1.77246v1.541h.043a2.8932,2.8932,0,0,1,2.84863-1.64355c1.99707,0,3.1416,1.28223,3.1416,3.35547v5.80078h-1.86719V15.39307c0-1.35937-.62891-2.11621-1.93652-2.11621a2.10392,2.10392,0,0,0-2.14355,2.34082v5.21484H169.687Z" style="fill: #fff"/>
    </g>
  </g>
</svg>
